<?xml version="1.0" encoding="UTF-8"?>
<svg id="_Слой_1" data-name="Слой 1" xmlns="http://www.w3.org/2000/svg" viewBox="0 0 492.14 563.02">
  <defs>
    <style>
      .cls-1 {
        fill: #ff003d;
        stroke-width: 0px;
      }
    </style>
  </defs>
  <g>
    <polygon class="cls-1" points="72.14 300.73 .01 300.73 .01 .74 72.14 71.23 72.14 300.73"/>
    <rect class="cls-1" x="71.01" y="261.78" width="72.13" height="303.38" transform="translate(-192.39 108.93) rotate(-30)"/>
    <polygon class="cls-1" points="224.6 518.76 152.47 563.02 152.47 72.87 224.6 .74 224.6 518.76"/>
    <polyline class="cls-1" points="152.63 563.02 224.6 562.7 224.6 518.76"/>
  </g>
  <g>
    <polygon class="cls-1" points="419.99 300 492.12 300 492.12 0 419.99 70.49 419.99 300"/>
    <rect class="cls-1" x="349" y="261.04" width="72.13" height="303.38" transform="translate(512.17 962.69) rotate(-150)"/>
    <polygon class="cls-1" points="267.54 518.03 339.67 562.29 339.67 72.13 267.54 0 267.54 518.03"/>
    <polyline class="cls-1" points="339.5 562.29 267.54 561.96 267.54 518.03"/>
  </g>
</svg>